<?xml version="1.0" encoding="utf-8"?>
<!-- Generator: Adobe Illustrator 27.5.0, SVG Export Plug-In . SVG Version: 6.00 Build 0)  -->
<svg version="1.1" xmlns="http://www.w3.org/2000/svg" xmlns:xlink="http://www.w3.org/1999/xlink" x="0px" y="0px"
	 viewBox="0 0 500 500" style="enable-background:new 0 0 500 500;" xml:space="preserve">
<g id="BACKGROUND">
	<rect style="fill:#FFFFFF;" width="500" height="500"/>
</g>
<g id="OBJECTS">
	<g>
		<path style="fill:#242C5B;" d="M382.034,363.908c-19.46,7.81-41.69,8.5-61.58,1.89
			C340.774,365.248,361.654,364.478,382.034,363.908z"/>
		<g>
			<path style="fill:#16B6AA;" d="M439.568,323.158c-4.67,5.33-10.4,9.64-16.33,13.53c-19.73,12.93-42.14,21.55-61.5,34.92h-3.28
				l0.93-1.47c0.14-0.23,0.28-0.45,0.43-0.68c3.64-6.55,7.79-12.83,12.39-18.76c9.82-12.69,21.68-23.83,35-32.78
				c6.87-4.62,14.28-8.73,22.4-10.37c2.6-0.53,5.33-0.79,7.9-0.1c2.57,0.68,4.96,2.46,5.81,4.98
				C444.588,316.198,442.198,320.178,439.568,323.158z"/>
			<path style="fill:#16B6AA;" d="M359.388,370.138l-0.93,1.47C358.718,371.118,359.068,370.628,359.388,370.138z"/>
			<path style="fill:#39BEB9;" d="M437.188,254.468c-3.61,17.36-15.49,31.64-26.66,45.41c-13.37,16.48-26.3,33.35-38.32,50.82
				c-4.6,5.93-8.75,12.21-12.39,18.76c-0.15,0.23-0.29,0.45-0.43,0.68l-0.93,1.47h-5.84c0-0.76,0.02-1.53,0.05-2.28
				c0.66-4.78,1.3-9.56,1.9-14.36c0.01-0.01,0.01-0.01,0-0.02c1.1-5.13,2.57-10.23,4.12-15.24c8.78-28.41,20.88-56.29,40.02-79.04
				c7.39-8.78,16.32-17.04,27.47-19.76c2.38-0.58,5-0.87,7.21,0.2C437.878,243.298,438.208,249.568,437.188,254.468z"/>
			<path style="fill:#16B6AA;" d="M354.568,354.948c0.01,0.01,0.01,0.01,0,0.02c-0.6,4.8-1.24,9.58-1.9,14.36
				c-0.03,0.75-0.05,1.52-0.05,2.28h-4.2c-2.67-8.14-5.35-16.27-8.03-24.41c-4.09-14.52-7.53-29.23-10.17-44.08
				c-5.38-30.32-7.2-62.56,4.66-90.98c1.58-3.78,4.44-8.09,8.51-7.62c2.11,0.25,3.85,1.8,5.17,3.48c4.21,5.3,5.74,12.19,6.9,18.86
				C362.798,269.088,359.958,312.318,354.568,354.948z"/>
			<path style="fill:#39BEB9;" d="M348.418,371.608h-7.73c-7.58-10.62-15.55-20.95-23.9-30.96c-11.51-13.83-23.82-27.18-32.73-42.82
				c-2.67-4.68-5.04-9.6-6.23-14.87c-1.19-5.26-1.14-10.91,0.91-15.9c0.72-1.76,1.77-3.51,3.44-4.43c2.91-1.62,6.55-0.21,9.44,1.44
				c12.5,7.15,22.02,18.71,28.94,31.33c6.92,12.63,11.47,26.4,15.97,40.07c1.29,3.91,2.58,7.82,3.86,11.73
				C343.068,355.338,345.748,363.468,348.418,371.608z"/>
			<path style="fill:#89E0DA;" d="M433.121,241.332c-2.986-0.439-4.84,2.491-5.772,4.891c-0.529,1.363-0.995,2.834-1.942,3.977
				c-1.058,1.275-2.58,1.609-4.145,1.846c-1.439,0.217-2.948,0.415-4.168,1.277c-0.989,0.699-1.659,1.736-2.136,2.832
				c-1.001,2.305-1.282,5.233-3.341,6.918c-2.082,1.705-5.097,1.994-6.842,4.165c-1.892,2.354-1.188,5.522-2.231,8.18
				c-1.031,2.627-3.908,3.393-6.107,4.757c-1.088,0.675-2.051,1.547-2.616,2.715c-0.645,1.333-0.735,2.841-0.89,4.289
				c-0.157,1.47-0.376,3.021-1.421,4.15c-0.927,1-2.256,1.513-3.473,2.06c-1.18,0.531-2.371,1.108-3.275,2.058
				c-0.953,1.002-1.401,2.342-1.651,3.676c-0.268,1.426-0.328,2.897-0.736,4.295c-0.42,1.44-1.312,2.472-2.5,3.351
				c-1.074,0.794-2.24,1.47-3.186,2.425c-0.979,0.988-1.507,2.238-1.596,3.622c-0.18,2.787,1.302,6.101-0.797,8.46
				c-1.736,1.952-4.578,2.745-5.521,5.392c-0.486,1.365-0.412,2.839-0.343,4.263c0.071,1.46,0.202,3.067-0.524,4.398
				c-1.211,2.221-4.217,2.692-5.383,4.981c-0.674,1.323-0.346,2.763-0.035,4.136c0.346,1.523,0.437,2.879-0.665,4.106
				c-0.845,0.942-1.939,1.624-2.777,2.575c-0.86,0.975-1.275,2.163-1.201,3.463c0.154,2.71,2.421,5.671,0.821,8.297
				c-0.788,1.294-2.128,2.155-3.232,3.15c-0.985,0.888-1.757,1.97-2.088,3.27c-0.306,1.203-0.075,2.417,0.854,3.274
				c0.474,0.437,1.115-0.33,0.643-0.766c-1.115-1.029-0.552-2.731,0.172-3.822c0.783-1.18,2.032-1.968,3.06-2.914
				c1.01-0.929,1.891-2.041,2.097-3.438c0.194-1.313-0.159-2.618-0.541-3.864c-0.408-1.33-0.987-2.767-0.745-4.183
				c0.222-1.297,1.204-2.169,2.158-2.979c0.896-0.761,1.862-1.537,2.364-2.631c0.61-1.329,0.282-2.729-0.029-4.088
				c-0.323-1.415-0.459-2.774,0.593-3.915c0.848-0.921,2.018-1.491,3.011-2.234c0.977-0.731,1.778-1.614,2.162-2.792
				c0.452-1.388,0.341-2.874,0.272-4.309c-0.068-1.42-0.142-2.952,0.564-4.24c0.637-1.164,1.808-1.917,2.867-2.657
				c1.022-0.714,2.062-1.467,2.744-2.533c0.736-1.153,0.887-2.506,0.818-3.846c-0.079-1.516-0.448-3.038-0.321-4.561
				c0.12-1.439,0.809-2.557,1.912-3.461c1.052-0.862,2.257-1.52,3.277-2.423c0.977-0.865,1.645-1.897,2.027-3.146
				c0.792-2.591,0.276-5.996,2.499-7.953c1.951-1.718,4.844-1.955,6.584-3.98c1.988-2.312,1.127-5.529,2.184-8.179
				c1.019-2.557,3.922-3.32,6.063-4.654c1.041-0.648,1.962-1.476,2.541-2.571c0.678-1.283,0.838-2.761,1.011-4.178
				c0.17-1.392,0.327-2.897,1.134-4.089c0.751-1.11,1.971-1.748,3.157-2.292c1.221-0.559,2.505-1.057,3.578-1.884
				c0.963-0.742,1.65-1.73,2.146-2.832c0.98-2.178,1.223-5.06,3.09-6.73c2.252-2.013,5.806-0.895,8.14-2.853
				c2.267-1.901,2.389-5.073,4.054-7.365c0.811-1.116,1.987-2.119,3.453-1.903C433.576,242.409,433.758,241.425,433.121,241.332z"/>
			<path style="fill:#89E0DA;" d="M436.105,247.163c-4.328,2.387-2.012,8.922-5.822,11.773c-1.867,1.397-4.272,1.784-6.364,2.724
				c-0.964,0.433-1.885,0.978-2.612,1.756c-0.934,1-1.363,2.303-1.519,3.641c-0.176,1.512-0.058,3.075-0.484,4.552
				c-0.325,1.128-1.027,2.088-1.892,2.866c-1.723,1.551-3.89,2.498-5.759,3.846c-0.922,0.665-1.801,1.435-2.45,2.375
				c-0.749,1.084-1.141,2.324-1.372,3.612c-0.264,1.467-0.336,2.975-0.75,4.412c-0.388,1.346-1.154,2.436-2.253,3.294
				c-2.023,1.58-4.651,2.442-6.216,4.572c-1.656,2.251-1.603,5.143-2.263,7.748c-0.33,1.302-0.897,2.53-1.922,3.43
				c-1.004,0.881-2.243,1.437-3.423,2.038c-1.085,0.553-2.158,1.141-3.033,2.003c-0.985,0.97-1.527,2.248-1.779,3.591
				c-0.518,2.765-0.032,5.739-1.775,8.15c-1.476,2.042-3.724,3.344-5.652,4.904c-0.976,0.79-1.918,1.653-2.65,2.68
				c-0.76,1.066-1.253,2.264-1.623,3.513c-0.786,2.649-0.944,5.664-2.584,7.983c-1.491,2.109-4.013,3.117-5.793,4.932
				c-0.866,0.883-1.486,1.968-1.687,3.197c-0.248,1.517,0.064,3.044,0.037,4.565c-0.027,1.548-0.616,2.629-1.758,3.634
				c-0.921,0.811-1.952,1.598-2.341,2.814c-0.469,1.465,0.318,2.973-0.084,4.424c-0.396,1.427-1.889,2.221-2.783,3.3
				c-0.834,1.006-1.421,2.374-0.827,3.641c0.271,0.578,1.211,0.236,0.937-0.349c-0.725-1.546,0.857-2.902,1.867-3.846
				c0.975-0.911,1.819-1.915,1.893-3.305c0.078-1.466-0.604-3.024,0.343-4.33c0.755-1.041,1.938-1.679,2.727-2.693
				c1.912-2.461,0.316-5.524,1.098-8.255c0.708-2.471,3.418-3.694,5.271-5.185c0.974-0.784,1.807-1.68,2.416-2.779
				c0.674-1.215,1.052-2.578,1.371-3.922c0.625-2.635,1.053-5.365,2.9-7.471c1.674-1.91,3.935-3.169,5.828-4.834
				c0.876-0.771,1.675-1.616,2.283-2.617c0.706-1.163,1.026-2.478,1.171-3.82c0.299-2.77,0.038-5.854,2.495-7.738
				c2.023-1.551,4.703-2.122,6.425-4.089c1.773-2.026,1.86-4.841,2.379-7.35c0.284-1.372,0.725-2.72,1.674-3.782
				c0.848-0.949,1.961-1.617,3.046-2.26c1.082-0.642,2.186-1.265,3.126-2.11c1.01-0.908,1.694-2.015,2.089-3.314
				c0.797-2.627,0.401-5.693,2.133-7.986c2.701-3.576,8.367-4.279,9.984-8.802c0.947-2.649-0.123-6.024,1.947-8.239
				c1.559-1.669,4.083-2.123,6.129-2.918c2.095-0.813,3.893-2.015,4.785-4.154c0.895-2.144,0.895-4.536,1.753-6.684
				c0.397-0.994,0.996-1.801,1.943-2.324C437.246,247.669,436.664,246.855,436.105,247.163z"/>
			<path style="fill:#89E0DA;" d="M346.56,366.348c-1.344-2.144-3.852-3.186-5.285-5.254c-1.714-2.474-0.496-5.531-0.691-8.287
				c-0.174-2.454-1.656-4.229-3.323-5.899c-1.716-1.72-3.505-3.412-3.628-5.997c-0.128-2.686,0.936-5.43-0.343-7.989
				c-0.531-1.062-1.375-1.751-2.493-2.127c-0.612-0.206-1.256-0.366-1.731-0.832c-0.416-0.407-0.656-0.956-0.788-1.516
				c-0.621-2.625,0.967-5.227,0.274-7.856c-0.61-2.313-2.843-3.228-4.788-4.195c-0.987-0.491-1.988-1.047-2.644-1.961
				c-0.642-0.895-0.898-1.993-1.05-3.066c-0.296-2.09-0.183-4.395-1.293-6.271c-1.263-2.135-3.674-2.273-5.745-3.157
				c-1.077-0.459-1.841-1.202-2.148-2.352c-0.307-1.153-0.208-2.387-0.255-3.567c-0.041-1.05-0.174-2.133-0.719-3.054
				c-0.602-1.017-1.635-1.56-2.723-1.921c-1.065-0.353-2.296-0.562-3.149-1.346c-0.833-0.764-1.033-1.956-1.166-3.023
				c-0.253-2.031-0.344-4.423-2.432-5.463c-1.996-0.994-4.695-0.248-5.889-2.559c-0.855-1.655-0.857-3.602-1.542-5.317
				c-0.291-0.73-0.717-1.422-1.373-1.876c-0.363-0.251-0.775-0.418-1.208-0.507c-0.791-0.162-1.638,0.026-2.41-0.24
				c-1.116-0.384-1.66-1.621-2.053-2.637c-0.434-1.123-0.78-2.283-1.553-3.234c-0.679-0.835-1.551-1.377-2.649-1.354
				c-0.644,0.013-0.554,1.01,0.087,0.996c2.433-0.051,2.911,3.721,3.814,5.32c0.534,0.945,1.329,1.721,2.417,1.958
				c1.112,0.242,2.369-0.132,3.266,0.747c1.215,1.192,1.275,3.368,1.696,4.92c0.518,1.91,1.505,3.417,3.519,3.92
				c1.157,0.289,2.455,0.231,3.527,0.806c0.984,0.528,1.363,1.573,1.54,2.615c0.335,1.964,0.178,4.319,1.83,5.748
				c1.688,1.46,4.809,1.043,5.782,3.327c0.877,2.058,0.04,4.451,0.854,6.545c0.881,2.267,3.2,2.638,5.24,3.347
				c1.052,0.365,1.998,0.894,2.588,1.871c0.54,0.895,0.721,1.966,0.845,2.988c0.252,2.072,0.222,4.324,1.364,6.156
				c1.162,1.863,3.346,2.508,5.163,3.522c0.974,0.544,1.87,1.27,2.233,2.364c0.468,1.413,0.08,2.961-0.173,4.377
				c-0.359,2.011-0.463,4.694,1.44,6.006c1.043,0.719,2.411,0.68,3.235,1.744c0.702,0.906,0.909,2.119,0.93,3.238
				c0.028,1.476-0.311,2.937-0.332,4.413c-0.018,1.284,0.254,2.506,0.883,3.627c1.081,1.925,2.911,3.257,4.321,4.916
				c0.711,0.837,1.324,1.767,1.595,2.843c0.352,1.403,0.129,2.882,0.008,4.299c-0.113,1.318-0.176,2.664,0.22,3.944
				c0.358,1.156,1.107,2.122,1.965,2.954c1.743,1.689,4.036,2.891,4.778,5.361c0.313,1.041,0.276,2.249-0.596,3.011
				c-0.48,0.419,0.092,1.24,0.578,0.816C348.152,370.645,347.688,368.147,346.56,366.348z"/>
			<path style="fill:#89E0DA;" d="M340.134,366.044c-0.845-0.725-1.775-1.379-2.48-2.251c-0.334-0.414-0.623-0.873-0.762-1.391
				c-0.18-0.671-0.039-1.338,0.063-2.008c0.155-1.02,0.131-1.98-0.421-2.878c-0.426-0.693-1.086-1.22-1.753-1.667
				c-1.342-0.901-3.216-1.645-3.931-3.203c-0.984-2.143,0.574-4.622-0.576-6.776c-0.955-1.788-3.073-2.258-4.689-3.23
				c-3.825-2.298-1.551-7.763-4.098-10.922c-1.31-1.625-3.379-2.13-5.073-3.215c-0.92-0.589-1.602-1.37-1.932-2.422
				c-0.343-1.095-0.324-2.283-0.356-3.418c-0.06-2.114-0.345-4.218-2.095-5.625c-1.54-1.239-3.561-1.663-5.109-2.878
				c-1.926-1.51-1.561-3.887-1.818-6.057c-0.126-1.064-0.43-2.115-1.129-2.949c-0.6-0.716-1.4-1.217-2.24-1.606
				c-1.692-0.782-3.816-1.14-5.113-2.582c-1.472-1.636-1.231-4.131-1.519-6.162c-0.294-2.069-1.156-3.73-3.02-4.774
				c-1.828-1.024-4.24-1.377-5.434-3.274c-1.252-1.988-0.941-4.582-1.77-6.734c-0.769-1.996-2.263-3.666-4.11-4.728
				c-0.919-0.528-1.93-0.882-2.973-1.062c-0.635-0.11-0.815,0.874-0.181,0.984c2.187,0.378,4.147,1.641,5.42,3.459
				c1.368,1.954,1.391,4.231,1.925,6.47c0.255,1.071,0.68,2.097,1.436,2.914c0.672,0.726,1.545,1.216,2.44,1.618
				c1.843,0.827,4,1.396,4.829,3.45c0.784,1.943,0.496,4.143,1.01,6.154c0.498,1.951,1.839,3.192,3.639,3.978
				c1.665,0.727,3.834,1.12,4.988,2.651c1.383,1.835,0.652,4.453,1.271,6.547c0.579,1.957,2.266,2.971,4.003,3.794
				c1.821,0.863,3.703,1.689,4.272,3.808c0.566,2.108,0.032,4.362,0.724,6.455c0.674,2.039,2.471,2.995,4.283,3.876
				c0.91,0.443,1.852,0.899,2.57,1.631c0.696,0.709,1.075,1.648,1.288,2.605c0.436,1.954,0.295,4.014,0.957,5.923
				c0.685,1.977,2.232,2.929,4.034,3.781c0.862,0.407,1.807,0.825,2.416,1.591c0.755,0.951,0.671,2.187,0.561,3.325
				c-0.107,1.108-0.249,2.243,0.076,3.33c0.244,0.816,0.781,1.504,1.415,2.059c1.252,1.096,2.904,1.673,4.077,2.863
				c0.729,0.74,0.892,1.588,0.741,2.603c-0.175,1.177-0.311,2.245,0.247,3.344c1.013,1.995,3.216,2.899,4.473,4.684
				c0.668,0.948,1.091,2.106,0.438,3.169c-0.337,0.549,0.571,0.97,0.904,0.428C343.291,369.702,341.67,367.361,340.134,366.044z"/>
		</g>
		<path style="fill:#F4AC22;" d="M382.034,363.908c-0.49,6.38-1.65,12.69-2.82,18.98c-3.19,17.28-6.39,34.54-9.58,51.81
			c-11.26,2.34-23,3.33-34.11,0.78c-5.15-23.23-10.31-46.45-15.46-69.67c0.13,0,0.26,0,0.39-0.01
			C340.344,372.408,362.574,371.718,382.034,363.908z"/>
	</g>
	<g>
		<ellipse style="fill:#D0EAE7;" cx="235.014" cy="450.508" rx="180.556" ry="31.942"/>
		<g>
			<rect x="160.737" y="125.271" style="fill:#D0EAE7;" width="68.192" height="68.051"/>
			<rect x="160.737" y="48.903" style="fill:#D0EAE7;" width="68.192" height="68.061"/>
			<rect x="82.109" y="125.271" style="fill:#D0EAE7;" width="68.192" height="68.051"/>
			<rect x="82.109" y="48.903" style="fill:#D0EAE7;" width="68.192" height="68.061"/>
		</g>
	</g>
	<g>
		<path style="fill:#39BEB9;" d="M181.415,243.993c0.361,2.506-0.433,5.012-1.271,7.392c-6.626,18.949-16.542,36.753-29.145,52.376
			c-20.256,1.37-40.395,4.327-60.174,8.853c-5.562,1.28-11.16,2.677-16.867,2.722c-5.706,0.036-11.638-1.442-15.866-5.283
			c-2.362-2.146-4.174-5.364-3.372-8.447c0.829-3.227,4.102-5.12,7.14-6.464c10.331-4.534,21.636-6.806,32.913-6.608
			c-13.288-9.826-26.873-20.374-34.328-35.122c-1.145-2.272-2.073-5.202-0.478-7.176c1.1-1.361,3.011-1.722,4.751-1.794
			c7.554-0.325,14.838,2.885,21.176,6.996c8.104,5.256,15.181,12.071,20.734,19.977c-4.444-17.02-7.518-34.392-9.204-51.907
			c-0.487-4.985-0.784-10.295,1.569-14.712c0.46-0.865,1.064-1.713,1.965-2.1c1.911-0.811,3.921,0.838,5.283,2.407
			c13.513,15.533,19.724,36.213,22.086,56.658c1.136-15.632,3.768-31.155,7.852-46.282c1.505-5.589,3.561-11.584,8.447-14.676
			c3.39,1.208,4.787,5.184,5.517,8.708c4.264,20.716,0.316,42.433-7.41,62.13c8.375-11.665,17.155-23.556,29.316-31.182
			c1.406-0.874,2.957-1.722,4.607-1.605C179.179,239.035,181.055,241.496,181.415,243.993z"/>
		<path style="fill:#89E0DA;" d="M170.156,255.091c-0.933-0.665-2.226-0.345-3.182,0.097c-1.303,0.602-2.512,1.502-3.677,2.333
			c-4.775,3.402-8.934,7.582-12.889,11.888c-4.234,4.609-8.281,9.399-12.757,13.778c2.197-12.913,6.324-25.513,7.143-38.642
			c0.103-1.651,0.155-3.305,0.142-4.959c-0.011-1.388,0.117-2.98-0.378-4.306c-0.393-1.055-1.406-1.786-2.529-1.29
			c-1.231,0.544-1.961,2.125-2.613,3.22c-3.334,5.605-5.321,11.885-7.18,18.098c-2.101,7.023-3.915,14.13-5.468,21.294
			c-1.691-5.122-3.384-10.243-5.127-15.348c-0.934-2.738-1.883-5.471-2.851-8.196c-0.881-2.479-1.753-4.974-2.996-7.3
			c-0.603-1.128-1.281-2.268-2.134-3.228c-0.658-0.74-1.674-1.393-2.658-0.837c-0.791,0.447-1.054,1.424-1.178,2.261
			c-0.207,1.396-0.328,2.811-0.426,4.219c-0.405,5.808-0.109,11.639,0.563,17.416c0.705,6.062,1.815,12.066,2.956,18.059
			c-6.125-5.803-12.564-11.757-20.436-15.032c-0.798-0.332-1.716-0.613-2.581-0.397c-0.809,0.202-1.391,0.869-1.502,1.695
			c-0.126,0.935,0.247,1.866,0.645,2.69c0.456,0.946,0.955,1.873,1.492,2.776c2.15,3.619,4.919,6.835,7.924,9.768
			c3.186,3.11,6.653,5.91,10.142,8.671c-8.692,0.461-17.764,1.141-25.591,5.243c-0.981,0.514-1.937,1.075-2.857,1.693
			c-0.9,0.605-1.811,1.249-2.481,2.115c-0.59,0.764-0.982,1.709-0.758,2.682c0.221,0.958,0.96,1.636,1.795,2.093
			c2.059,1.126,4.644,1.283,6.939,1.165c2.603-0.134,5.19-0.646,7.743-1.147c6.004-1.177,11.924-2.735,17.837-4.294
			c0.56-0.148,0.243-0.992-0.315-0.845c-4.946,1.304-9.895,2.611-14.897,3.685c-2.48,0.532-4.975,1.03-7.486,1.395
			c-2.302,0.335-4.676,0.526-6.974,0.058c-1.048-0.214-2.206-0.528-3.046-1.225c-0.904-0.751-0.938-1.832-0.304-2.775
			c0.584-0.869,1.462-1.486,2.314-2.067c0.858-0.585,1.749-1.124,2.664-1.613c3.768-2.015,7.935-3.203,12.127-3.94
			c4.802-0.845,9.679-1.133,14.54-1.385c0.387-0.02,0.553-0.555,0.25-0.794c-6.243-4.927-12.627-9.979-17.239-16.545
			c-1.155-1.644-2.197-3.375-3.055-5.193c-0.342-0.724-0.838-1.826-0.336-2.583c0.554-0.835,1.805-0.441,2.55-0.138
			c3.834,1.557,7.37,3.898,10.629,6.421c3.762,2.912,7.225,6.184,10.675,9.454c0.269,0.255,0.812-0.001,0.739-0.385
			c-2.06-10.793-4.134-21.703-3.944-32.739c0.047-2.733,0.151-5.549,0.623-8.247c0.073-0.417,0.177-0.899,0.464-1.228
			c0.468-0.538,1.112-0.204,1.543,0.2c0.86,0.804,1.504,1.953,2.073,2.971c1.218,2.18,2.061,4.549,2.897,6.894
			c0.934,2.62,1.849,5.247,2.751,7.878c2.032,5.929,3.996,11.881,5.96,17.833c0.144,0.436,0.778,0.344,0.866-0.076
			c1.384-6.569,2.996-13.09,4.842-19.545c1.73-6.052,3.509-12.181,6.273-17.857c0.678-1.393,1.42-2.756,2.238-4.072
			c0.451-0.725,1.81-3.167,2.832-1.764c0.305,0.419,0.401,0.987,0.451,1.492c0.078,0.794,0.081,1.602,0.096,2.399
			c0.03,1.644-0.005,3.289-0.098,4.931c-0.363,6.404-1.552,12.726-2.913,18.983c-1.553,7.136-3.339,14.226-4.485,21.444
			c-0.076,0.476,0.475,0.669,0.789,0.371c8.233-7.811,14.881-17.223,23.73-24.396c1.09-0.884,2.211-1.73,3.366-2.528
			c1.069-0.739,2.201-1.613,3.444-2.032c0.503-0.17,1.144-0.311,1.644-0.055c0.639,0.327,0.647,1.128,0.644,1.755
			c-0.008,1.62-0.413,3.23-0.952,4.749c-1.06,2.986-2.487,5.87-3.858,8.723c-1.383,2.877-2.837,5.719-4.361,8.523
			c-3.461,6.368-7.283,12.537-11.44,18.474c-0.331,0.472,0.357,1.055,0.691,0.579c3.842-5.488,7.406-11.171,10.662-17.027
			c1.635-2.941,3.194-5.925,4.673-8.947c1.471-3.006,2.951-6.045,4.161-9.167c0.579-1.495,1.067-3.047,1.245-4.645
			C171.102,257.566,171.282,255.893,170.156,255.091z"/>
	</g>
	<g>
		<path style="fill:#C93C11;" d="M223.634,257.155c-0.4,4.2-1.15,8.42-2.31,12.48c-1,3.52-2.47,6.98-5.05,9.64
			c-0.32,0.34-0.81,0.09-0.89-0.24c-12.42,5.75-24.88,11.6-36.48,18.81c-0.25-0.53-0.4-1.14-0.52-1.71
			c-2.97-13.59-5.18-27.34-6.62-41.18c-0.85-8.06-1.41-16.15-1.74-24.25c-0.16-2.08-0.33-4.16-0.5-6.24
			c-0.36-4.56-0.71-9.58,1.87-13.64c1.82-2.85,5.11-4.42,8.4-4.8c0.29-0.04,0.57-0.06,0.86-0.08c3.06-0.16,6.03,0.62,8.88,1.73
			c1.79,0.46,3.56,1.1,5.25,1.89c1.48,0.67,2.9,1.46,4.25,2.34c2.8,1.81,5.34,3.93,7.73,6.24c2.68,2.57,5.19,5.36,7.66,8.15
			l-0.01,0.01c2.21,2.17,4.02,4.71,5.45,7.47C223.584,240.955,224.394,249.195,223.634,257.155z"/>
		<g>
			<path style="fill:#5B61AB;" d="M156.854,390.075c-4.74-0.67-9.46-1.4-14.17-2.18c-3.07-0.51-6.13-1.03-9.18-1.59
				c-8.87-22.43-10.97-47.04-12.94-71.16c-0.83-10.11-1.66-20.23-1.46-30.37c0.07-3.78,0.29-7.61,1.44-11.21
				c1.15-3.61,3.32-7.01,6.56-8.97c2.25-1.36,4.86-1.96,7.43-2.52c0.44-0.1,0.89-0.19,1.33-0.29l0.05,0.22
				c5.97-0.61,12.89-0.87,16.94,3.54c2.71,2.95,3.33,7.21,3.67,11.2c1.14,13.22,0.62,26.53,0.01,39.79c-1,1.53-1.83,3.16-2.44,4.91
				c-1.9,5.42-1.46,11.44,0.21,16.94c1.66,5.49,4.49,10.55,7.36,15.52c7.94,13.69,16.44,27.07,25.79,39.83
				c-8.48-0.81-16.95-1.79-25.39-2.93C160.324,390.565,158.584,390.325,156.854,390.075z"/>
			<path style="fill:#39438E;" d="M178.384,296.135c0.12,0.57,0.27,1.18,0.52,1.71c-3.93,2.43-7.75,5.01-11.44,7.8
				c-4.11,3.11-8.16,6.62-10.93,10.89c0.61-13.26,1.13-26.57-0.01-39.79c-0.34-3.99-0.96-8.25-3.67-11.2
				c-4.05-4.41-10.97-4.15-16.94-3.54l-0.05-0.22c11.9-2.58,23.88-4.86,35.9-6.83C173.204,268.795,175.414,282.545,178.384,296.135z
				"/>
		</g>
		<g>
			<path style="fill:#5B61AB;" d="M173.064,145.095l-4.08-17.07l-35.58,14.83l4.53,12.25L173.064,145.095z M144.884,195.675
				c-0.17,0.29-0.25,0.54-0.22,0.74c0.03,0.08,0.05,0.16,0.08,0.24C144.894,196.615,144.924,196.255,144.884,195.675z"/>
			<path style="fill:#5B61AB;" d="M144.884,195.675c-0.17,0.29-0.25,0.54-0.22,0.74c-5.07-15.23-14.68-42.36-19.71-57.47
				c0.49-0.36,0.99-0.73,1.48-1.09c12.71-4.53,25.42-9.05,38.12-13.58c2.94-1.04,5.87-2.09,8.81-3.14
				c5.93,19.59,7.97,40.15,12.72,60.05c-7.04,2.67-34.3,12.8-41.34,15.47C144.894,196.615,144.924,196.255,144.884,195.675z"/>
			<polygon style="fill:#FFF7E6;" points="168.984,128.025 173.064,145.095 137.934,155.105 133.404,142.855 			"/>
			<path style="fill:#FFC871;" d="M164.554,124.275c-12.7,4.53-25.41,9.05-38.12,13.58c11.65-8.61,23.29-17.21,34.95-25.82
				C162.514,116.395,163.444,119.965,164.554,124.275z"/>
		</g>
		<g>
			<path style="fill:#F47621;" d="M320.544,429.575h-7.49c-2.97-14.89-5.93-29.77-8.9-44.65c3.23-2.19,6.36-4.51,9.4-6.96
				C315.964,395.155,318.294,412.365,320.544,429.575z"/>
			<path style="fill:#F15A25;" d="M304.154,384.925c2.97,14.88,5.93,29.76,8.9,44.65h-2.27c-3.53-13.89-7.41-27.69-11.64-41.38
				C300.834,387.145,302.504,386.055,304.154,384.925z"/>
		</g>
		<g>
			<path style="fill:#F47621;" d="M283.864,396.515c2.01,20.26,4.38,40.49,7.1,60.67h-9.05c-4.83-20.08-9.12-40.29-12.88-60.6
				c4.93-0.13,9.86-0.31,14.78-0.55C283.824,396.195,283.844,396.355,283.864,396.515z"/>
			<path style="fill:#F15A25;" d="M281.914,457.185h-6.22c-5.13-20.03-9.72-40.18-13.78-60.45c2.37-0.04,4.75-0.08,7.12-0.15
				C272.794,416.895,277.084,437.105,281.914,457.185z"/>
		</g>
		<path style="fill:#242C5B;" d="M210.934,115.145c-0.93-0.37-1.86-0.73-2.83-0.97c-5.67-1.37-11.59,1.91-17.35,1.01
			c-4.03-0.63-7.65-3.45-9.26-7.2c-0.57-1.31-0.89-2.77-0.62-4.17c0.68-3.52,4.58-5.2,7.28-7.56c4.36-3.82,6.2-10.33,11.37-12.96
			c4.5-2.29,9.97-0.8,14.59,1.25c3.09,1.37,6.21,3.01,9.6,3.08c5.82,0.12,10.9-4.4,16.72-4.6c2.81-0.1,5.64,0.87,7.8,2.67
			c2.68,2.24,4.3,5.65,7.27,7.47c4.69,2.87,11.78,1.24,15.22,5.53c1.57,1.97,1.86,4.68,1.64,7.18c-0.22,2.51-0.87,4.98-0.9,7.49
			c-0.03,2.41,0.52,4.82,1.58,6.97c0.96,1.96,2.35,3.73,2.96,5.82c1.13,3.86-0.61,8.03-3.12,11.16c-2.52,3.14-5.78,5.59-8.44,8.6
			c-2.05,2.33-3.75,5.2-4.15,8.21c-0.82-3.38-1.64-6.75-2.46-10.13c-0.25-1.02-0.51-2.05-0.89-3.02c2.12-1.53,3.95-3.44,5.38-5.61
			c1.24-1.87,2.21-4.02,2.21-6.27c0-2.24-1.14-4.59-3.18-5.53c-1.5-0.7-3.31-0.57-4.8,0.15c-0.95,0.46-1.77,1.14-2.46,1.94
			c0.57-4.21-2.94-8.7-7.26-8.88c-2.4-0.09-4.92,0.92-7.14-0.02c-3.05-1.29-4.05-5.71-7.26-6.56c-1.33-0.35-2.75,0.04-4.01,0.6
			c-4.29,1.92-7.95,6.01-12.65,5.75C214.084,116.455,212.514,115.785,210.934,115.145z"/>
		<g>
			<path style="fill:#F15A25;" d="M162.064,390.805c-5.78,20.71-11.56,41.41-17.34,62.12h-3.25c4.67-21.06,9.8-42.01,15.38-62.85
				C158.584,390.325,160.324,390.565,162.064,390.805z"/>
			<path style="fill:#F47621;" d="M142.684,387.895c4.71,0.78,9.43,1.51,14.17,2.18c-5.58,20.84-10.71,41.79-15.38,62.85h-8.32
				C136.084,431.215,139.264,409.535,142.684,387.895z"/>
		</g>
		<g>
			<path style="fill:#89E0DA;" d="M300.324,249.335c-0.16,6.85-1.51,13.78-3.37,20.41c-0.65,2.94-1.4,5.85-2.31,8.73
				c-1.33,4.2-2.95,8.31-4.97,12.23c-1.65,3.23-3.51,6.8-6.49,9c0.5,0.85,1.24,1.55,1.46,2.56c0.25,1.18-0.19,2.34-0.99,3.22
				c-0.88,0.94-2.11,1.45-3.38,1.55c-0.75,0.06-1.52-0.01-2.26-0.13c-0.23-0.03-1.03-0.25-1.53-0.34c0.04,0.26,0.1,0.51,0.09,0.77
				c-0.03,0.41-0.16,0.79-0.36,1.15c-0.45,0.78-1.23,1.32-2.1,1.53c-2.02,0.47-4.07-0.84-5.67-1.92c-3.28-2.2-5.81-5.3-8.19-8.43
				c-11.52-10.78-26.5-17.88-42.17-19.85c-0.84-0.1-1.82-0.31-2.21-1.01c-0.04-0.06-0.07-0.12-0.09-0.18
				c-0.48-1.27,1.14-2.25,2.44-2.63c-1.74-1.08-3.48-2.15-5.22-3.22c-0.38-0.24-0.8-0.53-0.85-0.98c-0.04-0.38,0.21-0.72,0.47-0.99
				c0.91-0.94,2.17-1.55,3.48-1.67l0.02-0.23c0.53,0.08,1.1-0.01,1.52-0.34c0.6-0.46,0.81-1.27,0.97-2.01
				c0.4-1.73,0.79-3.47,1.18-5.21c0.78,1.18,1.75,2.22,2.86,3.08c0.82,0.63,1.95,1.17,2.83,0.62c0.61-0.38,0.84-1.15,0.91-1.87
				c0.17-1.59-0.19-3.18-0.66-4.73c-0.15-0.49-0.31-0.97-0.47-1.44c-3.32-9.84-6.88-19.78-12.92-28.23
				c0.05-0.04,0.09-0.09,0.11-0.13c0.67-0.78,1.32-1.56,1.97-2.35c2.64-3.2,5.21-6.46,7.69-9.78c0.14-0.17,0.27-0.34,0.38-0.51
				c-0.1,0.03-0.21,0.04-0.31,0.05c2.35-15.81,5.72-31.46,10.07-46.83c-0.03,3.72,0.03,7.44,0.19,11.15
				c0.09-0.08,0.19-0.16,0.28-0.25c6.56-5.85,13.17-11.68,20.45-16.62c2.6-1.77,5.35-3.45,8.32-4.43c0.85-0.29,1.72-0.52,2.61-0.68
				c0.48-0.08,1.13-0.04,1.25,0.43c0.06,0.28-0.12,0.56-0.29,0.79c-0.9,1.18-1.79,2.38-2.67,3.57c3.47-0.34,7,0.07,10.3,1.19
				c0.25,0.08,0.51,0.18,0.63,0.41c0.2,0.36-0.06,0.8-0.34,1.11c-0.81,0.91-1.8,1.66-2.9,2.19l0.14,0.29
				c1.98,1.09,3.97,2.19,5.7,3.64c2.14,1.8,3.83,4.08,5.45,6.37c5.15,7.27,9.86,14.92,13.2,23.19c3.92,9.72,5.83,20.05,6.27,30.52
				C301.084,237.825,300.874,243.595,300.324,249.335z"/>
			<path style="fill:#69C9C0;" d="M222.294,176.975c-0.23-0.17-0.45-0.33-0.68-0.5c-0.34-0.26-0.71-0.56-0.78-0.98
				c-0.11-0.74,0.73-1.23,1.45-1.43c1.53-0.42,3.16-0.49,4.73-0.22c-0.02-1.03-1.26-1.76-1.22-2.8c0.03-0.57,0.47-1.06,0.98-1.31
				c0.52-0.26,1.11-0.32,1.68-0.37c1.26-0.13,2.54-0.26,3.8-0.38c0,0.08,0,0.16,0,0.24c-4.35,15.37-7.72,31.02-10.07,46.83
				c-5.12,0.79-22.821,3.313-27.971,3.913c-2.39-2.31-0.209-21.403-0.759-26.883c-0.05-0.46-0.09-0.92-0.14-1.37
				C203.214,187.285,212.884,182.365,222.294,176.975z"/>
			<path style="fill:#FFF7E6;" d="M212.344,228.775c6.04,8.45,9.6,18.39,12.92,28.23c0.16,0.47,0.32,0.95,0.47,1.44
				c0.47,1.55,0.83,3.14,0.66,4.73c-0.07,0.72-0.3,1.49-0.91,1.87c-0.88,0.55-2.01,0.01-2.83-0.62c-1.11-0.86-2.08-1.9-2.86-3.08
				c-0.39,1.74-0.78,3.48-1.18,5.21c-0.16,0.74-0.37,1.55-0.97,2.01c-0.42,0.33-0.99,0.42-1.52,0.34c-0.16-0.02-0.33-0.06-0.48-0.12
				c-0.66-0.24-1.2-0.73-1.67-1.25c-1.56-1.76-2.38-4.03-3.16-6.24c-1.47,2.14-1.76,5.1-3.77,6.75c-0.35,0.28-0.76,0.52-1.2,0.55
				c-0.92,0.05-1.65-0.79-2-1.64c-0.47-1.12-0.56-2.37-0.61-3.59c-0.06-1.65-0.07-3.3-0.01-4.95c0.27-9.29,2.2-18.49,4.31-27.58
				c0.14-0.61,0.28-1.22,0.42-1.83c1.36-0.48,2.84-0.62,4.27-0.39C212.264,228.665,212.304,228.715,212.344,228.775z"/>
			<path style="fill:#F47621;" d="M183.234,193.545l0.08,0.03c-0.31,1.15-0.56,2.32-0.79,3.49c-0.64,3.25-1.12,6.54-1.44,9.84
				l0.01,0.07c-0.54,0.05-1.08,0.13-1.62,0.23c-2.92-2.52-5.82-5.06-8.72-7.6c-1.54-3.05-3.12-6.11-4.9-9.02
				c1.44,0.37,2.9,0.61,4.36,0.84C174.554,192.135,178.894,192.835,183.234,193.545z"/>
			<path style="fill:#69C9C0;" d="M276.056,199.179c-0.372,6.255-1.089,12.488-2.159,18.663c-0.533,3.073-1.143,6.135-1.858,9.17
				c-0.62,2.631-1.359,5.255-2.567,7.684c-1.3,2.614-3.195,4.727-5.425,6.587c-2.264,1.888-4.654,3.637-7.022,5.392
				c-4.93,3.655-9.964,7.17-15.093,10.539c-1.423,0.935-2.841,1.891-4.307,2.759c-0.69,0.408-1.398,0.783-2.143,1.08
				c-0.684,0.273-1.452,0.35-2.117,0.643c-0.561,0.247-0.819,0.768-0.79,1.364c0.029,0.614,0.339,1.255-0.328,1.638
				c-1.37,0.785-2.486-0.889-3.113-1.855c-0.35-0.54-1.167,0.038-0.816,0.578c0.638,0.984,1.42,2.115,2.639,2.398
				c0.894,0.207,1.992-0.107,2.488-0.919c0.265-0.434,0.271-0.888,0.203-1.381c-0.055-0.396-0.212-0.775,0.245-0.95
				c0.385-0.148,0.826-0.192,1.22-0.317c1.37-0.436,2.634-1.163,3.847-1.923c5.379-3.369,10.613-6.994,15.753-10.716
				c2.612-1.892,5.196-3.822,7.749-5.791c2.318-1.787,4.65-3.655,6.352-6.066c3.338-4.728,4.368-10.805,5.45-16.369
				c1.414-7.27,2.337-14.631,2.777-22.024C277.077,198.725,276.094,198.538,276.056,199.179z"/>
			<path style="fill:#16B6AA;" d="M223.675,230.736c-0.741-1.544-1.483-3.089-2.224-4.633c-0.226-0.47-0.757-0.812-1.286-0.589
				c-0.462,0.195-0.831,0.781-0.589,1.286c0.741,1.544,1.483,3.089,2.224,4.633c0.226,0.47,0.757,0.812,1.286,0.589
				C223.549,231.827,223.918,231.241,223.675,230.736z"/>
			<path style="fill:#16B6AA;" d="M238.502,221.689c-0.23-0.545-0.741-0.725-1.286-0.589c-1.483,0.37-2.966,0.739-4.449,1.109
				c-0.509,0.127-0.783,0.827-0.589,1.286c0.231,0.545,0.741,0.725,1.286,0.589c1.483-0.37,2.966-0.739,4.449-1.109
				C238.423,222.849,238.696,222.148,238.502,221.689z"/>
			<path style="fill:#16B6AA;" d="M232.232,208.95c-0.071-0.517-0.529-0.983-1.083-0.909c-0.516,0.068-0.985,0.528-0.909,1.083
				c0.187,1.359,0.374,2.718,0.561,4.077c0.071,0.517,0.529,0.983,1.083,0.909c0.516-0.068,0.985-0.528,0.909-1.083
				C232.606,211.668,232.419,210.309,232.232,208.95z"/>
			<path style="fill:#16B6AA;" d="M245.382,197.296c-0.222-0.525-0.749-0.75-1.286-0.589c-2.04,0.612-4.081,1.225-6.121,1.837
				c-0.502,0.151-0.79,0.811-0.589,1.286c0.222,0.526,0.749,0.75,1.286,0.589c2.04-0.612,4.08-1.225,6.121-1.837
				C245.295,198.431,245.583,197.771,245.382,197.296z"/>
			<path style="fill:#16B6AA;" d="M235.246,185.057c-0.576,0.077-0.909,0.521-0.909,1.083v4.077c0,0.525,0.58,0.976,1.083,0.909
				c0.576-0.077,0.909-0.521,0.909-1.083v-4.077C236.329,185.442,235.749,184.991,235.246,185.057z"/>
			<path style="fill:#16B6AA;" d="M253.977,182.554c-1.478,0.217-2.956,0.435-4.434,0.652c-0.517,0.076-0.983,0.526-0.909,1.083
				c0.068,0.512,0.529,0.99,1.083,0.909c1.478-0.217,2.956-0.435,4.434-0.652c0.517-0.076,0.983-0.526,0.909-1.083
				C254.993,182.951,254.532,182.473,253.977,182.554z"/>
			<path style="fill:#16B6AA;" d="M264.996,178.106c-0.494-1.236-0.988-2.471-1.483-3.707c-0.194-0.485-0.78-0.803-1.286-0.589
				c-0.489,0.207-0.797,0.766-0.589,1.286c0.494,1.236,0.988,2.471,1.483,3.707c0.194,0.485,0.78,0.803,1.286,0.589
				C264.897,179.186,265.204,178.626,264.996,178.106z"/>
			<path style="fill:#16B6AA;" d="M267.942,194.223c-1.608-0.094-3.216-0.189-4.824-0.283c-0.279-0.016-0.521-0.001-0.759,0.168
				c-0.196,0.139-0.372,0.393-0.406,0.635c-0.066,0.482,0.245,1.132,0.803,1.165c1.608,0.094,3.216,0.189,4.824,0.283
				c0.279,0.016,0.521,0.001,0.759-0.168c0.196-0.139,0.372-0.393,0.406-0.635C268.811,194.906,268.5,194.256,267.942,194.223z"/>
			<path style="fill:#16B6AA;" d="M267.863,203.034c-0.576,0.077-0.909,0.521-0.909,1.083v5.189c0,0.525,0.58,0.976,1.083,0.909
				c0.576-0.077,0.909-0.521,0.909-1.083v-5.189C268.947,203.419,268.367,202.967,267.863,203.034z"/>
			<path style="fill:#16B6AA;" d="M254.49,209.133c-0.082-0.515-0.521-0.984-1.083-0.909c-0.506,0.067-0.997,0.53-0.909,1.083
				c0.247,1.544,0.494,3.089,0.741,4.633c0.082,0.515,0.521,0.984,1.083,0.909c0.506-0.067,0.997-0.53,0.909-1.083
				C254.984,212.222,254.737,210.677,254.49,209.133z"/>
			<path style="fill:#16B6AA;" d="M257.826,225.105c-0.078-0.588-0.521-0.894-1.083-0.909c-1.792-0.048-3.584-0.095-5.376-0.143
				c-0.525-0.014-0.975,0.59-0.909,1.083c0.078,0.588,0.521,0.894,1.083,0.909c1.792,0.048,3.584,0.095,5.376,0.143
				C257.442,226.202,257.892,225.598,257.826,225.105z"/>
			<path style="fill:#16B6AA;" d="M267.088,223.403c-0.044-0.521-0.549-0.98-1.083-0.909c-0.539,0.072-0.956,0.525-0.909,1.083
				c0.124,1.483,0.248,2.965,0.372,4.448c0.044,0.521,0.549,0.98,1.083,0.909c0.539-0.072,0.956-0.525,0.909-1.083
				C267.336,226.368,267.212,224.886,267.088,223.403z"/>
			<path style="fill:#16B6AA;" d="M241.139,230.124c-0.587-0.081-1.002,0.265-1.165,0.803l-1.732,5.726
				c-0.152,0.502,0.309,1.097,0.803,1.165c0.587,0.081,1.002-0.265,1.165-0.803c0.577-1.909,1.155-3.817,1.732-5.726
				C242.094,230.787,241.633,230.192,241.139,230.124z"/>
			<path style="fill:#16B6AA;" d="M255.602,239.554c-0.079-0.594-0.521-0.887-1.083-0.909l-5.188-0.208
				c-0.525-0.021-0.974,0.595-0.909,1.083c0.079,0.594,0.521,0.887,1.083,0.909c1.729,0.069,3.459,0.138,5.188,0.208
				C255.218,240.659,255.667,240.043,255.602,239.554z"/>
			<path style="fill:#16B6AA;" d="M242.721,245.481c-0.58-0.08-1.011,0.263-1.165,0.803c-0.493,1.73-0.985,3.46-1.478,5.19
				c-0.144,0.504,0.303,1.096,0.803,1.165c0.58,0.08,1.011-0.263,1.165-0.803l1.478-5.19
				C243.668,246.141,243.221,245.55,242.721,245.481z"/>
			<path style="fill:#16B6AA;" d="M231.791,245.633c-1.394-1.507-2.789-3.014-4.183-4.521c-0.161-0.174-0.506-0.25-0.73-0.23
				c-0.244,0.021-0.527,0.155-0.679,0.353c-0.158,0.205-0.265,0.466-0.23,0.73c0.037,0.281,0.163,0.473,0.353,0.679
				c1.394,1.507,2.789,3.014,4.183,4.521c0.161,0.174,0.506,0.25,0.73,0.23c0.244-0.021,0.527-0.155,0.679-0.353
				c0.158-0.205,0.265-0.466,0.23-0.73C232.107,246.03,231.981,245.839,231.791,245.633z"/>
			<path style="fill:#16B6AA;" d="M235.63,252.238c-0.31-0.399-0.966-0.598-1.394-0.238c-1.344,1.13-2.688,2.26-4.032,3.39
				c-0.399,0.336-0.588,0.943-0.238,1.394c0.31,0.399,0.966,0.598,1.394,0.238c1.344-1.13,2.688-2.26,4.032-3.39
				C235.791,253.296,235.98,252.689,235.63,252.238z"/>
			<path style="fill:#16B6AA;" d="M233.539,272.776c-0.928-1.358-1.857-2.716-2.785-4.074c-0.295-0.432-0.972-0.565-1.394-0.238
				c-0.434,0.337-0.554,0.932-0.238,1.394c0.928,1.358,1.857,2.716,2.785,4.074c0.295,0.432,0.972,0.565,1.394,0.238
				C233.735,273.833,233.855,273.238,233.539,272.776z"/>
			<path style="fill:#16B6AA;" d="M246.15,263.486c-0.362-0.467-0.903-0.51-1.394-0.238c-1.428,0.789-2.857,1.579-4.285,2.368
				c-0.459,0.254-0.544,1-0.238,1.394c0.362,0.467,0.903,0.51,1.394,0.238c1.428-0.789,2.857-1.579,4.285-2.368
				C246.371,264.627,246.456,263.88,246.15,263.486z"/>
			<path style="fill:#16B6AA;" d="M254.14,262.133c-0.085-0.515-0.519-0.984-1.083-0.909c-0.503,0.067-1.001,0.531-0.909,1.083
				c0.246,1.483,0.491,2.966,0.737,4.449c0.085,0.515,0.519,0.984,1.083,0.909c0.503-0.067,1.001-0.531,0.909-1.083
				C254.631,265.099,254.385,263.616,254.14,262.133z"/>
			<path style="fill:#16B6AA;" d="M248.828,274.357c-0.071-0.517-0.529-0.983-1.083-0.909c-0.516,0.068-0.985,0.528-0.909,1.083
				l0.868,6.309c0.071,0.517,0.529,0.983,1.083,0.909c0.516-0.068,0.985-0.528,0.909-1.083
				C249.406,278.563,249.117,276.46,248.828,274.357z"/>
			<path style="fill:#16B6AA;" d="M257.933,285.024c-1.483-0.121-2.966-0.241-4.449-0.362c-0.519-0.042-1.086,0.231-1.165,0.803
				c-0.068,0.492,0.245,1.119,0.803,1.165c1.483,0.121,2.966,0.241,4.449,0.362c0.519,0.042,1.086-0.231,1.165-0.803
				C258.804,285.697,258.491,285.07,257.933,285.024z"/>
			<path style="fill:#16B6AA;" d="M263.661,273.468c-0.199-0.469-0.777-0.821-1.286-0.589c-0.981,0.449-1.962,0.897-2.943,1.346
				c-0.24,0.11-0.44,0.266-0.555,0.51c-0.106,0.224-0.132,0.544-0.033,0.776c0.199,0.469,0.777,0.821,1.286,0.589
				c0.981-0.449,1.962-0.897,2.943-1.346c0.24-0.11,0.44-0.266,0.555-0.51C263.734,274.02,263.76,273.7,263.661,273.468z"/>
			<path style="fill:#16B6AA;" d="M265.209,254.91c-0.017-0.524-0.568-0.977-1.083-0.909c-0.562,0.075-0.927,0.522-0.909,1.083
				c0.061,1.853,0.122,3.707,0.183,5.56c0.017,0.524,0.568,0.978,1.083,0.909c0.562-0.075,0.927-0.522,0.909-1.083
				C265.331,258.616,265.27,256.763,265.209,254.91z"/>
			<path style="fill:#16B6AA;" d="M271.757,245.326c-1.606,0.06-3.212,0.119-4.819,0.179c-0.524,0.019-0.978,0.566-0.909,1.083
				c0.074,0.56,0.522,0.93,1.083,0.909c1.606-0.06,3.212-0.119,4.819-0.179c0.524-0.019,0.978-0.566,0.909-1.083
				C272.766,245.675,272.318,245.305,271.757,245.326z"/>
			<path style="fill:#16B6AA;" d="M282.243,247.343c-0.499-0.069-1.11,0.246-1.165,0.803c-0.127,1.297-0.254,2.594-0.38,3.891
				c-0.051,0.519,0.237,1.087,0.803,1.165c0.499,0.069,1.11-0.246,1.165-0.803c0.127-1.297,0.253-2.594,0.38-3.891
				C283.097,247.988,282.809,247.421,282.243,247.343z"/>
			<path style="fill:#16B6AA;" d="M279.341,259.084c-0.224-0.173-0.449-0.22-0.73-0.23c-1.36-0.049-2.719-0.098-4.079-0.147
				c-0.238-0.009-0.533,0.18-0.679,0.353c-0.158,0.188-0.263,0.483-0.23,0.73c0.034,0.257,0.142,0.516,0.353,0.679
				c0.224,0.173,0.449,0.22,0.73,0.23c1.359,0.049,2.719,0.098,4.079,0.147c0.238,0.008,0.533-0.18,0.679-0.353
				c0.158-0.188,0.263-0.483,0.23-0.73C279.66,259.506,279.553,259.246,279.341,259.084z"/>
			<path style="fill:#16B6AA;" d="M293.995,252.703l-4.434,0.987c-0.272,0.06-0.492,0.131-0.679,0.353
				c-0.158,0.188-0.263,0.483-0.23,0.73c0.064,0.479,0.536,1.031,1.083,0.909l4.434-0.987c0.272-0.06,0.492-0.131,0.679-0.353
				c0.158-0.188,0.263-0.483,0.23-0.73C295.015,253.133,294.542,252.582,293.995,252.703z"/>
			<path style="fill:#16B6AA;" d="M293.578,235.676c-0.546-0.075-1.052,0.254-1.165,0.803c-0.253,1.234-0.505,2.469-0.758,3.703
				c-0.105,0.512,0.276,1.092,0.803,1.165c0.546,0.075,1.052-0.254,1.165-0.803c0.253-1.234,0.505-2.469,0.758-3.703
				C294.486,236.328,294.105,235.749,293.578,235.676z"/>
			<path style="fill:#16B6AA;" d="M281.471,236.996c-1.73-0.183-3.46-0.365-5.19-0.548c-0.519-0.055-1.087,0.24-1.165,0.803
				c-0.069,0.503,0.247,1.106,0.803,1.165c1.73,0.183,3.46,0.365,5.19,0.548c0.519,0.055,1.087-0.24,1.165-0.803
				C282.344,237.658,282.028,237.055,281.471,236.996z"/>
			<path style="fill:#16B6AA;" d="M286.804,223.984c-0.503-0.069-1.106,0.247-1.165,0.803c-0.17,1.608-0.341,3.216-0.511,4.823
				c-0.055,0.519,0.24,1.087,0.803,1.165c0.503,0.069,1.106-0.247,1.165-0.803c0.17-1.608,0.341-3.216,0.511-4.823
				C287.662,224.63,287.367,224.061,286.804,223.984z"/>
			<path style="fill:#16B6AA;" d="M283.123,218.622c-0.194-0.458-0.784-0.835-1.286-0.589c-1.612,0.791-3.224,1.583-4.836,2.374
				c-0.468,0.23-0.814,0.754-0.589,1.286c0.194,0.458,0.784,0.835,1.286,0.589c1.612-0.791,3.224-1.583,4.836-2.374
				C283.003,219.679,283.349,219.154,283.123,218.622z"/>
			<path style="fill:#16B6AA;" d="M291.65,209.923c-0.508-0.07-1.1,0.247-1.165,0.803c-0.23,1.972-0.46,3.943-0.69,5.915
				c-0.06,0.518,0.244,1.088,0.803,1.165c0.508,0.07,1.1-0.247,1.165-0.803c0.23-1.972,0.46-3.943,0.69-5.915
				C292.514,210.57,292.209,210,291.65,209.923z"/>
			<path style="fill:#16B6AA;" d="M286.325,200.385c-0.206-0.487-0.767-0.799-1.286-0.589c-1.414,0.572-2.828,1.145-4.243,1.717
				c-0.484,0.196-0.803,0.779-0.589,1.286c0.206,0.487,0.767,0.799,1.286,0.589c1.414-0.572,2.828-1.145,4.243-1.717
				C286.22,201.475,286.539,200.892,286.325,200.385z"/>
			<path style="fill:#16B6AA;" d="M280.919,186.367c-0.56-0.077-1.035,0.258-1.165,0.803c-0.309,1.297-0.618,2.595-0.927,3.892
				c-0.121,0.509,0.287,1.094,0.803,1.165c0.56,0.077,1.035-0.258,1.165-0.803c0.309-1.297,0.618-2.595,0.927-3.892
				C281.843,187.022,281.435,186.438,280.919,186.367z"/>
			<path style="fill:#16B6AA;" d="M296.068,221.912c-0.065-0.518-0.534-0.982-1.083-0.909c-0.521,0.069-0.978,0.527-0.909,1.083
				c0.178,1.422,0.355,2.844,0.533,4.265c0.065,0.518,0.534,0.982,1.083,0.909c0.521-0.069,0.979-0.527,0.909-1.083
				C296.423,224.756,296.245,223.334,296.068,221.912z"/>
			<path style="fill:#FFF7E6;" d="M197.894,228.025c-1.21,0.22-2.3-0.77-3.02-1.63c-0.64-0.75-1.13-1.61-1.76-2.36
				c-0.26,1.01-0.89,1.89-1.77,2.5c-1.27,0.88-2.86,1.03-4.32,0.59c-3.03-0.91-4.72-3.79-5.61-6.64c-1.02-3.29-1.3-6.76-1.17-10.18
				c0.14-3.44,0.63-6.87,1.26-10.25c0.56-2.98,1.31-5.94,2.53-8.71c0.38-1.06,0.83-2.09,1.38-3.07c0.21-0.37,0.56-0.78,0.95-0.78
				c0.05,0,0.11,0.01,0.17,0.03c0.32,0.11,0.47,0.48,0.57,0.8c0.28,0.85,0.55,1.69,0.83,2.53c0.67-0.93,1.34-1.87,2.01-2.8
				c0.45-0.63,1.12-1.33,1.85-1.1c0.54,0.17,0.79,0.77,0.93,1.33c0.21,0.03,0.4,0.16,0.42,0.43c0.12,1.72,0.25,3.43,0.38,5.15
				c0.2,2.06,0.39,4.11,0.56,6.18c0.01,0.07,0.01,0.14,0.02,0.21c0.36,3.36,0.82,6.7,1.48,10.01c0.67,3.38,1.68,6.63,2.65,9.92
				c0.46,1.56,0.85,3.16,0.97,4.79C199.274,226.075,199.314,227.765,197.894,228.025z"/>
		</g>
		<g>
			<path style="fill:#F15A25;" d="M270.744,319.415c-1.07,3.12-3.27,5.99-5.95,7.91c-1.38,0.99-9.7,2.94-12.31,3.39
				c-12.85,2.24-25.83,3.8-38.84,4.67c-0.54,0.04-1.17,0.14-1.4,0.62c-0.12,0.24-0.11,0.52-0.09,0.79c0.07,1.04,0.15,2.08,0.22,3.12
				c0.08,1.12-0.01,2.52-1.04,2.96c-1.42,0.61-3.03-1.34-4.43-0.68c0.53,1.28,0.8,2.66,0.82,4.05v0.14c0,0.46-0.05,0.93-0.32,1.3
				c-0.51,0.74-1.56,0.8-2.45,0.72c-1.03-0.1-2.05-0.3-3.05-0.59c2.78,4.59,5.49,9.23,8.11,13.91c4.94,8.74,9.61,17.62,14.02,26.63
				c-1.95,1.21-3.82,2.55-5.69,3.88c-1.64,1.17-3.27,2.33-4.91,3.49c-0.38,0.27-0.75,0.54-1.13,0.8
				c-5.51,3.87-9.17,6.01-14.95,10.12l-0.24-0.33c-3.32-4.12-6.54-8.32-9.66-12.58c-9.35-12.76-17.85-26.14-25.79-39.83
				c-2.87-4.97-5.7-10.03-7.36-15.52c-1.67-5.5-2.11-11.52-0.21-16.94c0.61-1.75,1.44-3.38,2.44-4.91
				c2.77-4.27,6.82-7.78,10.93-10.89c3.69-2.79,7.51-5.37,11.44-7.8c11.75-7.3,24.39-13.21,36.97-19.04
				c0.39,0.7,1.37,0.91,2.21,1.01c12.93,1.63,25.37,6.75,35.8,14.54c3.67,1.84,7.1,4.56,10.17,7.24
				C269.164,306.065,273.114,312.485,270.744,319.415z"/>
			<path style="fill:#39438E;" d="M215.534,455.105c0.39-5.19,2.83-10.05,5.73-14.38c2.42-3.61,5.32-7.09,9.24-8.96
				c1.17-0.55,2.54-0.95,3.74-0.47c1.43,0.57,2.15,2.27,2.04,3.82c-0.11,1.54-0.87,2.95-1.66,4.27c-3.93,6.62-8.95,12.58-14.8,17.57
				l-0.14,0.15c1.09,1.02,2.49,1.67,3.61,2.67c0.68,0.61,1.24,1.34,1.81,2.07c0.59,0.76,1.18,1.53,1.77,2.29l0.13,0.08
				c7.57-12.42,15.66-24.53,24.25-36.28c0.21-0.29,0.44-0.59,0.7-0.87c0.95-1.05,2.17-1.91,3.42-1.42c1.66,0.66,1.63,3.06,0.95,4.71
				c-0.54,1.34-1.29,2.57-2.04,3.8c-6.31,10.33-12.63,20.65-18.96,30.97c-2.43,3.94-5.07,8.09-9.25,10.08
				c-2.18,1.03-4.61,1.39-7,1.69c-4.94,0.62-9.9,1.04-14.87,1.27c-3.15,0.13-6.67,0.06-9.01-1.99c-0.66-5.84,0.53-12.05,4.29-16.54
				c0.32-0.38,0.66-0.75,1.02-1.1c1.03-1,2.21-1.86,3.48-2.54c1.98-1.06,4.19-1.7,6.39-1.79
				C212.134,454.125,213.894,454.415,215.534,455.105z"/>
			<path style="fill:#F4AC22;" d="M219.904,429.965c-2.49-4.92-5.34-9.67-8.52-14.18c0.21-0.24,0.43-0.49,0.64-0.73
				c4.93-5.68,9.87-11.35,14.81-17.03c0.14-0.16,0.28-0.32,0.42-0.49c2.09,4.39,4.22,8.77,6.42,13.12l0.02-0.01
				c1.26,2.26,3.54,3.76,5.86,4.91c2.31,1.15,4.77,2.06,6.88,3.56c2.67,1.91,4.66,4.78,5.52,7.95c-0.26,0.28-0.49,0.58-0.7,0.87
				c-8.59,11.75-16.68,23.86-24.25,36.28l-0.13-0.08c-0.59-0.76-1.18-1.53-1.77-2.29c-0.57-0.73-1.13-1.46-1.81-2.07
				c-1.12-1-2.52-1.65-3.61-2.67l0.14-0.15c5.85-4.99,10.87-10.95,14.8-17.57c0.79-1.32,1.55-2.73,1.66-4.27
				c0.11-1.55-0.61-3.25-2.04-3.82c-1.2-0.48-2.57-0.08-3.74,0.47c-3.92,1.87-6.82,5.35-9.24,8.96c-2.9,4.33-5.34,9.19-5.73,14.38
				c-1.64-0.69-3.4-0.98-5.16-0.9C214.804,446.635,219.324,438.675,219.904,429.965z"/>
			<path style="fill:#FFF7E6;" d="M230.924,391.805c-0.56,1.71-1.59,3.2-2.73,4.6c-0.31,0.39-0.62,0.76-0.94,1.13
				c-0.14,0.17-0.28,0.33-0.42,0.49c-4.94,5.68-9.88,11.35-14.81,17.03c-0.21,0.24-0.43,0.49-0.64,0.73
				c-1.47,1.69-2.96,3.35-4.59,4.87c-1.23,1.14-2.57,2.22-4.14,2.82c-0.4,0.15-0.93,0.24-1.21-0.09c-0.19-0.24-0.16-0.58-0.11-0.89
				c0.27-1.55,0.76-3.07,1.45-4.5c-1.04,0.91-2.25,1.62-3.56,2.08c-0.55,0.2-1.17,0.35-1.72,0.16c-0.7-0.25-1.11-0.99-1.17-1.72
				c-0.06-0.74,0.18-1.46,0.45-2.14c0.81-2,1.98-3.85,3.44-5.45c-1.97,0.67-4.28,1.31-6.03,0.17c-0.21-0.14-0.42-0.32-0.49-0.57
				c-0.09-0.38,0.18-0.74,0.45-1.02c0.23-0.25,0.46-0.49,0.7-0.72l0.01-0.01l2.49-2.13c5.78-4.11,9.44-6.25,14.95-10.12
				c0.38-0.26,0.75-0.53,1.13-0.8c1.64-1.16,3.27-2.32,4.91-3.49c1.87-1.33,3.74-2.67,5.69-3.88c0.87-0.54,1.76-1.06,2.67-1.54
				c0.24-0.12,0.5-0.25,0.76-0.2c0.27,0.06,0.45,0.28,0.62,0.5C229.204,388.565,230.164,390.145,230.924,391.805z"/>
			<path style="fill:#5B61AB;" d="M203.984,455.995c-1.27,0.68-2.45,1.54-3.48,2.54c-4.93-3.22-9.23-7.41-12.57-12.28
				c-2.74-3.99-4.86-8.56-5.1-13.39c-0.06-1.29,0.14-2.8,1.25-3.45c1.18-0.68,2.66,0.02,3.79,0.79c4.28,2.96,7.62,7.13,10.18,11.66
				C200.564,446.325,202.344,451.145,203.984,455.995z"/>
			<path style="fill:#C93C11;" d="M220.641,280.029c-9.895,3.658-19.751,7.515-29.085,12.462
				c-9.153,4.852-18.093,10.823-25.048,18.584c-3.306,3.69-6.152,7.954-7.491,12.768c-1.471,5.289-0.537,10.618,1.441,15.643
				c2.12,5.386,4.957,10.51,7.882,15.494c2.997,5.109,6.153,10.128,9.353,15.112c6.434,10.021,13.176,19.843,20.215,29.449
				c0.874,1.193,1.753,2.382,2.635,3.568c0.384,0.515,1.202-0.06,0.816-0.578c-6.991-9.393-13.7-18.994-20.111-28.792
				c-3.212-4.909-6.353-9.866-9.412-14.872c-3.019-4.941-5.942-9.952-8.436-15.183c-2.363-4.957-4.581-10.346-4.08-15.954
				c0.443-4.96,2.791-9.511,5.787-13.408c3.12-4.058,6.957-7.55,10.967-10.708c4.034-3.177,8.344-5.993,12.809-8.525
				c9.078-5.148,18.77-9.115,28.521-12.786c1.194-0.449,2.389-0.894,3.586-1.336C221.593,280.744,221.247,279.806,220.641,280.029z"
				/>
			<path style="fill:#C93C11;" d="M230.139,282.675c-10.161,4.065-20.34,8.146-30.087,13.144c-4.667,2.393-9.258,4.973-13.617,7.894
				c-4.051,2.714-7.911,5.786-11.142,9.455c-6.302,7.156-10.181,17.352-6.935,26.752c0.84,2.432,2.096,4.7,3.437,6.887
				c1.454,2.37,2.988,4.693,4.537,7.002c3.15,4.694,6.42,9.307,9.677,13.927c6.45,9.152,12.946,18.283,19.992,26.99
				c0.877,1.084,1.763,2.161,2.658,3.231c0.41,0.49,1.23-0.083,0.816-0.578c-7.055-8.442-13.533-17.341-19.89-26.314
				c-3.207-4.527-6.413-9.055-9.565-13.62c-1.564-2.265-3.109-4.543-4.617-6.845c-1.476-2.253-2.97-4.513-4.252-6.884
				c-1.198-2.215-2.176-4.574-2.625-7.062c-0.423-2.345-0.439-4.747-0.104-7.104c0.681-4.795,2.719-9.338,5.592-13.215
				c5.919-7.988,14.8-13.37,23.414-18.015c9.465-5.104,19.417-9.229,29.384-13.234c1.225-0.492,2.451-0.983,3.676-1.473
				C231.084,283.374,230.739,282.435,230.139,282.675z"/>
			<path style="fill:#C93C11;" d="M243.4,289.048c-8.799,3.078-17.589,6.239-26.057,10.157c-8.29,3.836-16.305,8.417-23.325,14.299
				c-3.476,2.912-6.856,6.122-9.567,9.771c-2.76,3.716-4.694,8.111-4.083,12.826c0.649,5.011,3.539,9.434,6.094,13.669
				c2.738,4.539,5.565,9.023,8.479,13.451c5.85,8.888,12.05,17.545,18.583,25.944c0.82,1.054,1.645,2.103,2.474,3.149
				c0.398,0.502,1.218-0.072,0.816-0.578c-6.491-8.182-12.669-16.611-18.51-25.27c-2.92-4.329-5.757-8.715-8.507-13.154
				c-1.381-2.228-2.743-4.469-4.077-6.726c-1.267-2.145-2.489-4.332-3.356-6.674c-0.848-2.291-1.325-4.745-1.032-7.19
				c0.274-2.285,1.138-4.44,2.294-6.417c2.305-3.941,5.683-7.303,9.061-10.332c6.722-6.026,14.495-10.764,22.597-14.691
				c8.182-3.966,16.715-7.15,25.28-10.177c1.061-0.375,2.123-0.748,3.185-1.119C244.356,289.774,244.009,288.836,243.4,289.048z"/>
			<path style="fill:#C93C11;" d="M259.088,299.205c-1.646,2.341-4.365,3.61-6.792,4.975l-8.805,4.951
				c-5.834,3.28-11.668,6.56-17.502,9.84c-2.533,1.424-5.547,2.712-7.299,5.135c-1.801-0.578-3.229-2.794-5.308-1.623
				c-2.099,1.182-1.745,3.717-1.93,5.813c-1.642-1.36-3.878-2.55-5.733-0.919c-1.971,1.733-1.44,4.451-0.747,6.675
				c-0.438,0.173-0.938,0-1.405-0.141c-0.586-0.177-1.177-0.385-1.798-0.369c-1.071,0.028-1.966,0.732-2.501,1.619
				c-1.491,2.469,0.181,5.089,1.669,7.09c0.383,0.515,1.202-0.06,0.816-0.578c-1.292-1.737-3.098-4.311-1.367-6.372
				c0.766-0.912,1.694-0.805,2.733-0.489c0.912,0.278,1.943,0.59,2.736-0.13c0.173-0.157,0.255-0.351,0.18-0.583
				c-0.598-1.833-1.357-4.277,0.218-5.86c1.676-1.684,3.955,0.222,5.242,1.427c0.285,0.267,0.739,0.057,0.813-0.293
				c0.378-1.774-0.426-5.156,1.694-6.091c0.879-0.388,1.744,0.196,2.446,0.682c0.732,0.506,1.451,1.011,2.336,1.202
				c0.238,0.052,0.424-0.093,0.542-0.278c0.743-1.164,1.869-1.995,3.029-2.709c1.303-0.803,2.66-1.522,3.994-2.271
				c2.899-1.63,5.798-3.26,8.696-4.889c5.725-3.219,11.45-6.438,17.176-9.657c2.698-1.517,5.8-2.908,7.633-5.515
				C260.222,299.325,259.459,298.678,259.088,299.205z"/>
			<path style="fill:#FFF7E6;" d="M213.827,468.945c-0.112-0.629-1.109-0.547-0.996,0.087c0.217,1.22,0.379,3.212-1.364,3.264
				c-1.628,0.049-2.559-1.57-3.274-2.79c-0.22-0.376-0.836-0.206-0.9,0.199c-0.227,1.438-0.711,2.992-2.42,3.1
				c-1.42,0.09-2.53-1.22-2.348-2.604c0.084-0.637-0.9-0.82-0.984-0.181c-0.249,1.897,1.147,3.744,3.111,3.786
				c0.902,0.019,1.806-0.333,2.447-0.97c0.486-0.483,0.746-1.099,0.923-1.745c0.906,1.297,2.124,2.451,3.836,2.171
				C213.99,472.912,214.133,470.667,213.827,468.945z"/>
			<ellipse style="fill:#FFF7E6;" cx="202.692" cy="462.691" rx="1.807" ry="2.398"/>
			<ellipse style="fill:#FFF7E6;" cx="211.622" cy="462.239" rx="1.703" ry="2.363"/>
		</g>
		<g>
			<path style="fill:#F4AC22;" d="M256.94,140.98c0.38,0.97,0.64,2,0.89,3.02c0.82,3.38,1.64,6.75,2.46,10.13v0.01
				c0.4,1.65,0.8,3.29,1.2,4.94c-2.97,0.98-5.72,2.66-8.32,4.43c-7.28,4.94-13.89,10.77-20.45,16.62c-0.09,0.09-0.19,0.17-0.28,0.25
				c-0.16-3.71-0.22-7.43-0.19-11.15c0.02-0.08,0.05-0.16,0.07-0.24h-0.07c0.03-2.96,0.12-5.91,0.26-8.87
				c-1.56,0.32-3.14,0.46-4.73,0.39c-5.34-0.22-10.68-3.03-13.3-7.7c-0.92-1.62-1.49-3.42-1.99-5.22
				c-2.91-10.52-3.45-21.69-1.56-32.44c1.58,0.64,3.15,1.31,4.84,1.4c4.7,0.26,8.36-3.83,12.65-5.75c1.26-0.56,2.68-0.95,4.01-0.6
				c3.21,0.85,4.21,5.27,7.26,6.56c2.22,0.94,4.74-0.07,7.14,0.02c4.32,0.18,7.83,4.67,7.26,8.88c0.69-0.8,1.51-1.48,2.46-1.94
				c1.49-0.72,3.3-0.85,4.8-0.15c2.04,0.94,3.18,3.29,3.18,5.53c0,2.25-0.97,4.4-2.21,6.27
				C260.89,137.54,259.06,139.45,256.94,140.98z"/>
			<path style="fill:#F47621;" d="M232.324,168.985c-0.02,0-0.05,0-0.07,0c0.03-2.96,0.12-5.91,0.26-8.87
				c3.67-0.75,7.15-2.51,10.09-4.86c4.1-3.26,7.23-7.59,9.71-12.21c-1.16,4.11-3.15,7.93-5.17,11.69
				c-4.59,8.58-9.4,17.04-14.42,25.39c-0.09,0.09-0.19,0.17-0.28,0.25c-0.16-3.71-0.22-7.43-0.19-11.15
				C232.274,169.145,232.304,169.065,232.324,168.985z"/>
			<path style="fill:#F47621;" d="M244.834,131.215c1.63,0.97,2.55,3,2.21,4.86s-1.93,3.43-3.79,3.76
				c-1.87,0.33-3.89-0.61-4.84-2.24c-0.73-1.24-0.84-2.81-0.32-4.14c0.09-0.25,0.21-0.49,0.35-0.71c0.31-0.43,0.66-0.83,1.07-1.16
				C240.984,130.395,243.214,130.245,244.834,131.215z"/>
			<path style="fill:#E25454;" d="M238.284,143.485c0.23,1.14-0.12,2.33-0.64,3.38c-1.72,3.53-5.44,5.99-9.35,6.26
				c0.57-5.07,4.19-9.69,8.99-11.44C237.784,142.165,238.154,142.795,238.284,143.485z"/>
			<path style="fill:#242C5B;" d="M237.284,141.685c-4.8,1.75-8.42,6.37-8.99,11.44c-0.24,0.02-0.48,0.03-0.72,0.03
				c-1.25,0-2.53-0.23-3.59-0.88c-1.07-0.66-1.88-1.8-1.92-3.05c-0.03-1.03,0.47-2.02,1.17-2.78c0.71-0.75,1.61-1.29,2.53-1.75
				c0.79-0.4,1.61-0.76,2.43-1.11c1.24-0.66,2.47-1.32,3.71-1.98c0.6-0.32,1.22-0.65,1.87-0.83c0.22-0.06,0.44-0.11,0.67-0.13
				C235.484,140.535,236.534,140.955,237.284,141.685z"/>
			<path style="fill:#F47621;" d="M222.104,127.385c1.4,3.46,2.04,7.22,1.88,10.95c-0.01,0.41-0.05,0.84-0.26,1.19
				c-0.2,0.36-0.64,0.61-1.03,0.48c-0.25-0.09-0.43-0.31-0.58-0.53c-0.43-0.61-0.76-1.3-0.98-2.01c-0.66,1-1.53,1.85-2.55,2.5
				c-0.44,0.28-0.93,0.52-1.45,0.58c-0.53,0.06-1.1-0.11-1.43-0.52c-0.46-0.57-0.32-1.41-0.09-2.11
				C216.914,133.975,220.344,131.125,222.104,127.385z"/>
			<g>
				<path style="fill:#242C5B;" d="M234.666,119.347c-1.362-1.355-3.26-2.054-5.166-2.034c-0.524,0.006-0.976,0.576-0.909,1.083
					c0.076,0.572,0.522,0.915,1.083,0.909c0.067-0.001,0.15,0.008,0.223,0.005c-0.05-0.003-0.088-0.012,0.007-0.004
					c0.011,0.001,0.022,0.002,0.033,0.003c0.007-0.001,0.015,0.001,0.021-0.001c-0.005,0.001-0.012,0.001-0.017,0.001
					c0.035,0.003,0.07,0.005,0.105,0.008c0.201,0.018,0.401,0.047,0.599,0.086c0.187,0.036,0.371,0.081,0.554,0.134
					c0.008,0.002,0.026,0.008,0.045,0.014c0.02,0.007,0.039,0.013,0.047,0.016c0.101,0.036,0.201,0.074,0.3,0.115
					c0.176,0.073,0.348,0.153,0.517,0.242c0.084,0.044,0.167,0.09,0.249,0.138c0.03,0.018,0.06,0.036,0.091,0.054
					c0.02,0.045,0.19,0.13,0.23,0.159c0.086,0.063,0.171,0.129,0.253,0.197c0.156,0.128,0.305,0.265,0.448,0.407
					c0.372,0.37,1.099,0.28,1.409-0.123C235.142,120.296,235.063,119.742,234.666,119.347z"/>
				<path style="fill:#242C5B;" d="M229.897,119.31c0.016,0.001,0.03,0,0.044-0.001c-0.001,0-0.003,0-0.004,0
					C229.925,119.31,229.911,119.309,229.897,119.31z"/>
			</g>
			<path style="fill:#242C5B;" d="M216.915,118.156c-0.233-0.55-0.739-0.718-1.286-0.589c-1.014,0.24-2.038,0.486-2.968,0.97
				c-0.995,0.518-1.818,1.209-2.393,2.183c-0.267,0.452,0.01,1.135,0.477,1.332c0.538,0.227,1.047,0.006,1.332-0.477
				c0.016-0.028,0.024-0.044,0.026-0.051c0.016-0.02,0.034-0.039,0.043-0.052c0.06-0.082,0.123-0.161,0.188-0.238
				c0.074-0.087,0.157-0.165,0.234-0.249c0.001-0.001,0,0,0.001-0.001c0.031-0.027,0.062-0.054,0.094-0.08
				c0.157-0.13,0.323-0.25,0.495-0.361c0.086-0.055,0.174-0.108,0.263-0.159c0.008-0.004,0.032-0.017,0.055-0.03
				c0.038-0.019,0.087-0.043,0.089-0.044c0.874-0.42,1.824-0.645,2.763-0.867C216.837,119.321,217.107,118.611,216.915,118.156z"/>
			<path style="fill:#242C5B;" d="M233.377,123.059c-0.238-0.044-0.569,0.13-0.582,0.401c-0.038,0.783-0.175,1.588-0.49,2.31
				c-0.228,0.521-0.731,1.212-1.397,1.013c-0.611-0.183-0.946-0.871-1.184-1.408c-0.323-0.731-0.6-1.483-0.66-2.286
				c-0.048-0.642-1.044-0.555-0.996,0.087c0.058,0.774,0.289,1.523,0.585,2.237c0.268,0.646,0.57,1.292,1.076,1.788
				c0.532,0.521,1.284,0.75,2,0.506c0.714-0.243,1.209-0.873,1.495-1.545c0.337-0.793,0.512-1.662,0.554-2.52
				C233.791,123.372,233.667,123.112,233.377,123.059z"/>
			<path style="fill:#242C5B;" d="M217.684,123.655c-0.288,0.025-0.456,0.271-0.455,0.542c0.003,0.806-0.064,1.659-0.289,2.437
				c-0.085,0.291-0.214,0.492-0.449,0.622c-0.148,0.083-0.456,0.137-0.645,0.112c-0.54-0.07-0.977-0.481-1.238-0.972
				c-0.364-0.681-0.419-1.482-0.487-2.236c-0.057-0.641-1.053-0.555-0.996,0.087c0.125,1.403,0.369,2.965,1.664,3.78
				c0.555,0.35,1.238,0.436,1.864,0.238c0.701-0.221,1.101-0.8,1.28-1.485c0.226-0.864,0.296-1.781,0.293-2.671
				C218.224,123.84,217.937,123.633,217.684,123.655z"/>
			<path style="fill:#F47621;" d="M261.457,127.616c-0.404-0.723-0.497-1.577-1.222-2.083c-0.654-0.457-1.442-0.289-2.026,0.199
				c-1.273,1.064-1.598,3.05-1.795,4.599c-0.06,0.476-0.1,0.953-0.123,1.432c-0.016,0.328-0.039,0.689,0.163,0.975
				c0.561,0.796,1.193-0.274,1.848,0.002c0.773,0.326,1.012,1.456,0.82,2.182c-0.229,0.866-1.009,1.433-1.88,1.51
				c-0.641,0.057-0.555,1.053,0.087,0.996c1.43-0.127,2.667-1.203,2.835-2.66c0.153-1.328-0.68-3.148-2.23-3.097
				c-0.077,0.003-0.411,0.047-0.651,0.129c0.003-0.055,0.004-0.109,0.008-0.164c0.015-0.239,0.035-0.478,0.059-0.716
				c0.09-0.871,0.226-1.756,0.479-2.596c0.191-0.637,0.657-1.975,1.46-2.063c0.797-0.087,1.061,1.415,1.351,1.933
				C260.954,128.755,261.769,128.174,261.457,127.616z"/>
		</g>
		<g>
			<path style="fill:#F4AC22;" d="M147.614,194.955c-2.21,0.11-4.45,0.13-6.53-0.57c-0.27-0.1-0.58-0.24-0.65-0.52
				c-0.07-0.31,0.19-0.6,0.43-0.8c2.01-1.71,4.56-2.76,7.18-2.97v-0.01c-3.17-0.69-6.35-1.47-9.18-3.05
				c-0.5-0.28-1.07-0.77-0.9-1.33c0.1-0.3,0.41-0.49,0.7-0.64c0.47-0.23,0.96-0.41,1.46-0.55c0.94-0.27,1.93-0.42,2.9-0.57
				c1.83-0.27,3.7-0.53,5.52-0.24c-2.97-2.12-5.65-4.62-7.95-7.45c-0.19-0.24-0.4-0.51-0.39-0.82c0.02-0.63,0.82-0.88,1.45-0.91
				c6.81-0.41,13.37,3.15,18.12,8.04c1.96,2.03,3.66,4.27,5.19,6.63c0.31,0.46,0.6,0.92,0.89,1.39c1.78,2.91,3.36,5.97,4.9,9.02
				c2.9,2.54,5.8,5.08,8.72,7.6c9.25,8.01,18.6,15.88,28.06,23.63c-2.11,9.09-4.04,18.29-4.31,27.58
				c-11.43-13.16-22.61-26.53-33.52-40.12c-1.54-1.91-3.07-3.82-4.59-5.74l-0.19,0.15c-2.7,0.56-5.6,0.1-7.99-1.27
				c-2.4-1.37-4.26-3.64-5.15-6.25c-0.36-1.07-0.57-2.22-1.2-3.16c-0.56-0.84-1.6-1.49-2.55-1.31l-0.46-0.12
				c-1.84,0.59-3.76,1.19-5.68,0.99c-0.24-0.03-0.5-0.07-0.68-0.24c-0.22-0.2-0.26-0.54-0.18-0.82c0.08-0.29,0.27-0.53,0.45-0.77
				C143.124,197.715,145.244,196.065,147.614,194.955z"/>
			<path style="fill:#F47621;" d="M154.025,198.141c-1.234-2.031-3.494-3.403-5.868-3.54c-0.269-0.016-0.529,0.113-0.582,0.402
				c-0.044,0.24,0.13,0.567,0.401,0.582c2.146,0.124,4.116,1.295,5.233,3.134C153.543,199.269,154.358,198.69,154.025,198.141z"/>
			<path style="fill:#F47621;" d="M155.222,194.378c-1.843-2.338-4.33-4.131-7.147-5.103c-0.603-0.208-1.035,0.694-0.427,0.904
				c2.657,0.917,5.016,2.568,6.758,4.777C154.802,195.459,155.622,194.885,155.222,194.378z"/>
			<path style="fill:#F47621;" d="M156.718,190.438c-2.02-3.176-4.875-5.772-8.216-7.503c-0.573-0.297-0.998,0.609-0.428,0.904
				c3.195,1.654,5.897,4.142,7.828,7.177C156.247,191.559,157.063,190.981,156.718,190.438z"/>
		</g>
		<g>
			<path style="fill:#39438E;" d="M318.564,235.755c3.31,1.22,6.52,2.93,9.27,5.15c-0.42,3.53-2.4,6.79-4.99,9.25
				c-2.81,2.68-6.31,4.53-9.86,6.1c-4.63,2.06-9.43,3.72-14.3,5.06c1.71-9.61,2.57-19.48,2.16-29.22
				C306.854,232.825,312.894,233.655,318.564,235.755z"/>
			<path style="fill:#242C5B;" d="M262.754,346.575c0.02,5.69,0.03,11.38,0.04,17.07c-17.61,0.19-35.24-0.45-52.78-1.92
				c-2.62-4.68-5.33-9.32-8.11-13.91c1,0.29,2.02,0.49,3.05,0.59c0.89,0.08,1.94,0.02,2.45-0.72c0.27-0.37,0.32-0.84,0.32-1.3
				C226.054,347.055,244.414,347.115,262.754,346.575z"/>
			<path style="fill:#39438E;" d="M262.714,328.155c0.02,6.14,0.03,12.28,0.04,18.42c-18.34,0.54-36.7,0.48-55.03-0.19
				c0-0.05,0-0.09,0-0.14c-0.02-1.39-0.29-2.77-0.82-4.05c1.4-0.66,3.01,1.29,4.43,0.68c1.03-0.44,1.12-1.84,1.04-2.96
				c-0.07-1.04-0.15-2.08-0.22-3.12c-0.02-0.27-0.03-0.55,0.09-0.79c0.23-0.48,0.86-0.58,1.4-0.62c13.01-0.87,25.99-2.43,38.84-4.67
				C255.954,330.115,259.444,329.455,262.714,328.155z"/>
			<path style="fill:#39438E;" d="M313.554,377.965c-3.04,2.45-6.17,4.77-9.4,6.96c-1.65,1.13-3.32,2.22-5.01,3.27
				c-4.23,2.64-8.58,5.06-13.05,7.25c1.28-29.95,1.71-59.93,1.3-89.91c-0.1-6.87-0.23-13.82,1.3-20.51s4.93-13.22,10.58-17.12
				c3.85-2.66,8.46-3.92,12.73-5.85c8.38-3.77,15.93-11.09,17.06-20.11c1.8,1.65,3.37,3.54,4.56,5.68
				c3.53,6.31,3.54,13.94,3.11,21.16c-1.14,18.98-4.68,37.73-8.21,56.42c-3.01,15.9-6,31.8-9.01,47.69
				C317.574,374.645,315.584,376.335,313.554,377.965z"/>
			<path style="fill:#5B61AB;" d="M298.684,261.315c4.87-1.34,9.67-3,14.3-5.06c3.55-1.57,7.05-3.42,9.86-6.1
				c2.59-2.46,4.57-5.72,4.99-9.25c0.42,0.33,0.83,0.68,1.23,1.04c-1.13,9.02-8.68,16.34-17.06,20.11
				c-4.27,1.93-8.88,3.19-12.73,5.85c-5.65,3.9-9.05,10.43-10.58,17.12s-1.4,13.64-1.3,20.51c0.41,29.98-0.02,59.96-1.3,89.91
				c-0.36,0.18-0.72,0.36-1.08,0.53c-0.4,0.02-0.8,0.04-1.2,0.06c-4.92,0.24-9.85,0.42-14.78,0.55c-2.37,0.07-4.75,0.11-7.12,0.15
				c-11.24,0.18-22.49,0.07-33.72-0.33c1.14-1.4,2.17-2.89,2.73-4.6c-0.76-1.66-1.72-3.24-2.84-4.69c-0.17-0.22-0.35-0.44-0.62-0.5
				c-0.26-0.05-0.52,0.08-0.76,0.2c-0.91,0.48-1.8,1-2.67,1.54c-4.41-9.01-9.08-17.89-14.02-26.63c17.54,1.47,35.17,2.11,52.78,1.92
				c-0.01-5.69-0.02-11.38-0.04-17.07c-0.01-6.14-0.02-12.28-0.04-18.42c-0.02-8.72-0.04-17.43-0.07-26.15c0-1.97,0-3.93-0.01-5.9
				c-0.01-6.15,0.04-12.59,2.93-18.02c0.84-1.59,1.9-3.02,3.13-4.32c2.93-3.13,6.79-5.46,10.81-7.09c5.67-2.3,11.75-3.41,17.68-4.95
				C297.684,261.595,298.184,261.455,298.684,261.315z"/>
		</g>
	</g>
	<g>
		<path style="fill:#5B61AB;" d="M394.402,433.153v16.29h-8.06h-11.16c-1.18-5.38-0.81-11.07,1.04-16.26v-0.03H394.402z"/>
		<polygon style="fill:#F15A25;" points="305.202,467.853 384.682,467.853 386.342,467.853 386.342,469.993 303.502,469.993 
			303.502,467.853 		"/>
		<polygon style="fill:#F15A25;" points="384.692,451.573 305.452,451.573 303.502,451.573 303.502,449.443 322.592,449.443 
			334.132,449.443 344.302,449.443 365.282,449.443 375.182,449.443 386.342,449.443 386.342,451.573 		"/>
		<path style="fill:#F4AC22;" d="M305.452,451.573h79.24c-0.57,1.25-0.99,2.57-1.28,3.91l-76.54,0.39
			C306.592,454.383,306.112,452.933,305.452,451.573z"/>
		<path style="fill:#FFC871;" d="M384.682,467.853h-79.48c0.65-1.24,1.14-2.55,1.47-3.91h76.74
			C383.702,465.283,384.122,466.603,384.682,467.853z"/>
		<path style="fill:#F15A25;" d="M383.932,407.873v11.77h-12.93c-1.39-3.77-1.27-8.08,0.3-11.77H383.932z"/>
		<path style="fill:#FFC871;" d="M306.872,455.873l76.54-0.39c-0.38,1.76-0.51,3.58-0.41,5.39l-75.79-0.86
			C307.262,458.623,307.152,457.233,306.872,455.873z"/>
		<path style="fill:#F4AC22;" d="M383.412,463.943h-76.74c0.33-1.28,0.51-2.6,0.54-3.93l75.79,0.86
			C383.062,461.903,383.202,462.933,383.412,463.943z"/>
		<path style="fill:#F4AC22;" d="M376.222,433.153v0.03c-1.85,5.19-2.22,10.88-1.04,16.26h-9.9c-1.33-2.41-1.68-5.28-1.46-8.03
			c0.23-2.81,1.03-5.56,1.82-8.26h4.28H376.222z"/>
		<path style="fill:#39BEB9;" d="M339.912,407.873h31.39c-1.57,3.69-1.69,8-0.3,11.77h-1.08h-30.26h-0.21
			c-0.09-0.05-0.16-0.16-0.2-0.26C337.892,415.673,338.142,411.413,339.912,407.873z"/>
		<polygon style="fill:#39438E;" points="368.572,430.093 369.922,430.093 369.922,433.153 365.642,433.153 346.042,433.153 
			334.172,433.153 322.592,433.153 313.562,433.153 313.562,430.093 314.752,430.093 		"/>
		<path style="fill:#39438E;" d="M314.542,422.703h-0.98v-3.06h18.02h7.87c0.07,0.05,0.15,0.06,0.21,0h30.26v3.06h-1.93H314.542z"/>
		<path style="fill:#F4AC22;" d="M368.572,430.093h-53.82c0.14-0.54,0.24-1.09,0.3-1.65l52.92,0.4
			C368.112,429.283,368.312,429.703,368.572,430.093z"/>
		<path style="fill:#FFC871;" d="M314.542,422.703h53.45c-0.16,0.8-0.3,1.61-0.38,2.42l-52.69-0.88
			C314.822,423.723,314.702,423.213,314.542,422.703z"/>
		<path style="fill:#FFC871;" d="M367.972,428.843l-52.92-0.4c0.07-0.56,0.1-1.12,0.1-1.69l52.41-0.28
			C367.572,427.273,367.702,428.093,367.972,428.843z"/>
		<path style="fill:#F4AC22;" d="M314.922,424.243l52.69,0.88c-0.04,0.44-0.06,0.88-0.05,1.32c0,0.01,0,0.02,0,0.03l-52.41,0.28
			C315.152,425.913,315.072,425.073,314.922,424.243z"/>
		<path style="fill:#5B61AB;" d="M346.042,433.153h19.6c-0.79,2.7-1.59,5.45-1.82,8.26c-0.22,2.75,0.13,5.62,1.46,8.03h-20.98v-0.25
			c-1.41-5.22-0.78-10.97,1.74-15.76V433.153z"/>
		<path style="fill:#F4AC22;" d="M346.042,433.153v0.28c-2.52,4.79-3.15,10.54-1.74,15.76v0.25h-10.17v-0.14
			c-1.82-5.03-1.81-10.71,0.04-15.74v-0.41H346.042z"/>
		<path style="fill:#F15A25;" d="M331.582,407.873h8.33c-1.77,3.54-2.02,7.8-0.66,11.51c0.04,0.1,0.11,0.21,0.2,0.26h-7.87V407.873z
			"/>
		<path style="fill:#5B61AB;" d="M334.172,433.153v0.41c-1.85,5.03-1.86,10.71-0.04,15.74v0.14h-11.54v-16.29H334.172z"/>
	</g>
	<g>
		<path style="fill:#F4AC22;" d="M463.166,313.179c-0.854-6.507-3.201-12.824-6.889-18.258c-3.98-5.863-9.515-10.402-15.212-14.515
			c-1.434-1.035-2.883-2.049-4.332-3.062c-0.524-0.366-1.171,0.397-0.643,0.766c5.797,4.052,11.705,8.162,16.385,13.526
			c4.322,4.953,7.351,10.922,8.895,17.308c1.532,6.333,1.561,13.043-0.031,19.367c-1.492,5.927-4.401,11.475-8.317,16.158
			c-3.936,4.706-8.876,8.486-14.463,11.022c-5.473,2.484-11.599,4.157-16.036,8.425c-4.571,4.397-5.786,10.839-5.715,16.944
			c0.086,7.408,2.144,14.793,1.083,22.208c-0.915,6.391-4.527,11.964-9.615,15.865c-5.584,4.28-12.575,6.246-19.534,6.57
			c-1.799,0.084-3.599,0.06-5.396-0.056c-0.636-0.041-0.822,0.942-0.181,0.984c7.233,0.467,14.703-0.495,21.205-3.851
			c5.417-2.796,10.078-7.263,12.627-12.848c3.181-6.97,2.12-14.65,1.308-22.004c-0.715-6.478-1.168-13.63,2.147-19.525
			c3.262-5.801,9.715-8.128,15.532-10.522c2.885-1.187,5.704-2.488,8.332-4.18c2.531-1.629,4.874-3.544,6.997-5.677
			C460.353,338.746,464.836,325.903,463.166,313.179z"/>
		<path style="fill:#F4AC22;" d="M402.415,210.474c2.346-6.451,3.646-13.973,0.264-20.313c-2.689-5.041-7.805-8.207-13.155-9.798
			c-2.763-0.822-5.639-1.236-8.52-1.29c-3.465-0.065-6.921,0.293-10.374,0.514c-3.414,0.219-6.878,0.338-10.258-0.288
			c-3.391-0.629-6.455-2.103-9.019-4.413c-2.433-2.192-4.358-4.872-6.282-7.503c-1.914-2.617-3.895-5.163-6.17-7.48
			c-4.496-4.579-9.964-8.324-16.158-10.157c-13.031-3.856-26.629,2.04-36.499,10.476c-1.223,1.045-2.402,2.14-3.542,3.274
			c-0.457,0.455,0.313,1.094,0.766,0.643c9.162-9.125,22.269-16.43,35.596-14.215c6.42,1.067,12.222,4.365,17.026,8.672
			c2.449,2.195,4.637,4.653,6.618,7.275c1.925,2.547,3.712,5.209,5.844,7.593c2.141,2.393,4.626,4.445,7.626,5.661
			c3.003,1.217,6.247,1.598,9.467,1.629c6.6,0.064,13.219-1.347,19.795-0.294c5.546,0.888,11.228,3.289,14.794,7.789
			c4.416,5.573,4.026,12.922,2.08,19.391c-2.093,6.953-5.961,13.259-7.6,20.368c-1.283,5.565-0.961,11.999,2.462,16.782
			c0.806,1.126,1.782,2.123,2.891,2.952c0.514,0.384,1.16-0.38,0.643-0.766c-4.894-3.658-6.237-10.276-5.509-16.052
			C396.113,223.679,399.953,217.242,402.415,210.474z"/>
		<path style="fill:#F4AC22;" d="M107.913,312.625c-7.09,3.353-14.965,8.79-15.506,17.383c-0.291,4.619,1.391,9.026,2.51,13.431
			c0.582,2.29,1.027,4.649,0.939,7.022c-0.079,2.111-0.622,4.19-1.509,6.103c-3.752,8.095-12.124,12.459-19.324,16.977
			c-3.691,2.316-7.336,4.83-10.256,8.1c-3.014,3.375-4.974,7.499-5.772,11.95c-1.705,9.507,1.755,18.937,7.025,26.747
			c0.669,0.991,1.369,1.96,2.091,2.913c0.388,0.512,1.207-0.063,0.816-0.578c-5.684-7.497-10.056-16.585-9.293-26.218
			c0.359-4.539,1.843-8.964,4.61-12.608c2.614-3.444,6.096-6.078,9.689-8.423c7.049-4.601,15.034-8.458,19.796-15.721
			c2.318-3.535,3.455-7.564,3.037-11.793c-0.449-4.551-2.289-8.808-3.067-13.294c-0.378-2.181-0.485-4.416-0.007-6.591
			c0.428-1.948,1.303-3.779,2.471-5.391c2.404-3.317,5.844-5.755,9.4-7.704c0.885-0.485,1.787-0.936,2.699-1.367
			C108.839,313.29,108.497,312.349,107.913,312.625z"/>
	</g>
	<g>
		<path style="fill:#D0EAE7;" d="M291.42,127.249c0.72-4.06,0.34-8.37-0.43-12.45c-1.11-5.88-2.97-11.65-3.32-17.62
			c-0.89-15.13,8.44-29.65,21.2-37.82c12.76-8.18,28.42-10.75,43.57-10.43c16.16,0.34,32.54,3.91,46.26,12.44
			c6.57,4.09,12.67,9.57,15.44,16.81c2.1,5.49,2.11,11.61,0.93,17.37c-3.81,18.59-19.66,33.11-37.57,39.38s-37.58,5.38-56.26,2
			c-7.26-1.32-14.87-2.98-21.89-0.7c-6.92,2.26-12.95,8.25-20.09,8.01c5.52-4.37,9.77-10.35,12.05-17.01L291.42,127.249z"/>
		<text transform="matrix(1 0 0 1 296.6079 70.3726)" style="fill:#5B61AB; font-family:'Bahiana-Regular'; font-size:38.2465px;">I stay at</text>
		<text transform="matrix(1 0 0 1 296.6069 122.7759)" style="fill:#F47621; font-family:'Bahiana-Regular'; font-size:61.6386px;">home</text>
	</g>
</g>
</svg>
